<svg width="24" height="25" viewBox="0 0 24 25" fill="none" xmlns="http://www.w3.org/2000/svg">
<path d="M3 6.75977H21" stroke="#F05050" stroke-width="1.6" stroke-linecap="round" stroke-linejoin="round"/>
<path d="M8 6.75977V4.75977C8 4.22933 8.21071 3.72062 8.58579 3.34555C8.96086 2.97048 9.46957 2.75977 10 2.75977H14C14.5304 2.75977 15.0391 2.97048 15.4142 3.34555C15.7893 3.72062 16 4.22933 16 4.75977V6.75977M19 6.75977V20.7598C19 21.2902 18.7893 21.7989 18.4142 22.174C18.0391 22.5491 17.5304 22.7598 17 22.7598H7C6.46957 22.7598 5.96086 22.5491 5.58579 22.174C5.21071 21.7989 5 21.2902 5 20.7598V6.75977H19Z" stroke="#F05050" stroke-width="1.6" stroke-linecap="round" stroke-linejoin="round"/>
<path d="M10 11.7598V17.7598" stroke="#F05050" stroke-width="1.6" stroke-linecap="round" stroke-linejoin="round"/>
<path d="M14 11.7598V17.7598" stroke="#F05050" stroke-width="1.6" stroke-linecap="round" stroke-linejoin="round"/>
</svg>
