<svg width="20" height="21" viewBox="0 0 20 21" fill="none" xmlns="http://www.w3.org/2000/svg">
<g clip-path="url(#clip0)">
<path fill-rule="evenodd" clip-rule="evenodd" d="M16.0716 13.4545C16.0226 13.1842 16.0557 12.9053 16.1666 12.654C16.2722 12.4075 16.4476 12.1973 16.6712 12.0493C16.8948 11.9012 17.1568 11.8217 17.4249 11.8207H17.4999C17.9419 11.8207 18.3659 11.6451 18.6784 11.3325C18.991 11.02 19.1666 10.596 19.1666 10.154C19.1666 9.71197 18.991 9.28805 18.6784 8.97549C18.3659 8.66293 17.9419 8.48733 17.4999 8.48733H17.3582C17.0901 8.48626 16.8281 8.40681 16.6045 8.25875C16.381 8.11068 16.2056 7.90048 16.0999 7.654V7.58733C15.989 7.33599 15.9559 7.05717 16.0049 6.78684C16.0539 6.51651 16.1828 6.26707 16.3749 6.07067L16.4249 6.02067C16.5799 5.86588 16.7028 5.68207 16.7867 5.47974C16.8706 5.27741 16.9137 5.06053 16.9137 4.8415C16.9137 4.62248 16.8706 4.4056 16.7867 4.20327C16.7028 4.00094 16.5799 3.81712 16.4249 3.66233C16.2701 3.50737 16.0863 3.38444 15.884 3.30057C15.6817 3.2167 15.4648 3.17352 15.2458 3.17352C15.0267 3.17352 14.8098 3.2167 14.6075 3.30057C14.4052 3.38444 14.2214 3.50737 14.0666 3.66233L14.0166 3.71233C13.8202 3.90445 13.5707 4.03332 13.3004 4.08234C13.0301 4.13135 12.7513 4.09826 12.4999 3.98733C12.2534 3.8817 12.0432 3.7063 11.8952 3.48272C11.7471 3.25915 11.6677 2.99716 11.6666 2.729V2.654C11.6666 2.21197 11.491 1.78805 11.1784 1.47549C10.8659 1.16293 10.4419 0.987335 9.99992 0.987335C9.55789 0.987335 9.13397 1.16293 8.82141 1.47549C8.50885 1.78805 8.33325 2.21197 8.33325 2.654V2.79567C8.33218 3.06382 8.25273 3.32581 8.10466 3.54939C7.9566 3.77296 7.74639 3.94837 7.49992 4.054H7.43325C7.1819 4.16493 6.90309 4.19802 6.63276 4.14901C6.36243 4.09999 6.11298 3.97112 5.91658 3.779L5.86658 3.729C5.7118 3.57404 5.52798 3.45111 5.32565 3.36724C5.12332 3.28336 4.90644 3.24019 4.68742 3.24019C4.46839 3.24019 4.25151 3.28336 4.04918 3.36724C3.84685 3.45111 3.66304 3.57404 3.50825 3.729C3.35329 3.88379 3.23036 4.0676 3.14649 4.26993C3.06261 4.47226 3.01944 4.68914 3.01944 4.90817C3.01944 5.12719 3.06261 5.34407 3.14649 5.5464C3.23036 5.74873 3.35329 5.93255 3.50825 6.08733L3.55825 6.13733C3.75037 6.33373 3.87924 6.58318 3.92826 6.85351C3.97727 7.12384 3.94418 7.40265 3.83325 7.654C3.73801 7.91295 3.56708 8.13725 3.34267 8.29776C3.11826 8.45827 2.85075 8.54755 2.57492 8.554H2.49992C2.05789 8.554 1.63397 8.7296 1.32141 9.04216C1.00885 9.35472 0.833252 9.77864 0.833252 10.2207C0.833252 10.6627 1.00885 11.0866 1.32141 11.3992C1.63397 11.7117 2.05789 11.8873 2.49992 11.8873H2.64159C2.90974 11.8884 3.17173 11.9679 3.39531 12.1159C3.61888 12.264 3.79428 12.4742 3.89992 12.7207C4.01085 12.972 4.04394 13.2508 3.99492 13.5212C3.94591 13.7915 3.81703 14.0409 3.62492 14.2373L3.57492 14.2873C3.41996 14.4421 3.29703 14.6259 3.21315 14.8283C3.12928 15.0306 3.08611 15.2475 3.08611 15.4665C3.08611 15.6855 3.12928 15.9024 3.21315 16.1047C3.29703 16.3071 3.41996 16.4909 3.57492 16.6457C3.72971 16.8006 3.91352 16.9236 4.11585 17.0074C4.31818 17.0913 4.53506 17.1345 4.75408 17.1345C4.97311 17.1345 5.18999 17.0913 5.39232 17.0074C5.59465 16.9236 5.77846 16.8006 5.93325 16.6457L5.98325 16.5957C6.17965 16.4036 6.4291 16.2747 6.69943 16.2257C6.96976 16.1766 7.24857 16.2097 7.49992 16.3207C7.75886 16.4159 7.98317 16.5868 8.14368 16.8113C8.30418 17.0357 8.39347 17.3032 8.39992 17.579V17.654C8.39992 18.096 8.57551 18.52 8.88807 18.8325C9.20063 19.1451 9.62456 19.3207 10.0666 19.3207C10.5086 19.3207 10.9325 19.1451 11.2451 18.8325C11.5577 18.52 11.7333 18.096 11.7333 17.654V17.5123C11.7343 17.2442 11.8138 16.9822 11.9618 16.7586C12.1099 16.535 12.3201 16.3596 12.5666 16.254C12.8179 16.1431 13.0967 16.11 13.3671 16.159C13.6374 16.208 13.8869 16.3369 14.0833 16.529L14.1333 16.579C14.288 16.734 14.4719 16.8569 14.6742 16.9408C14.8765 17.0246 15.0934 17.0678 15.3124 17.0678C15.5314 17.0678 15.7483 17.0246 15.9507 16.9408C16.153 16.8569 16.3368 16.734 16.4916 16.579C16.6465 16.4242 16.7695 16.2404 16.8533 16.0381C16.9372 15.8357 16.9804 15.6189 16.9804 15.3998C16.9804 15.1808 16.9372 14.9639 16.8533 14.7616C16.7695 14.5593 16.6465 14.3755 16.4916 14.2207L16.4416 14.1707C16.2495 13.9743 16.1206 13.7248 16.0716 13.4545ZM12.4999 10.154C12.4999 11.5347 11.3807 12.654 9.99994 12.654C8.61923 12.654 7.49994 11.5347 7.49994 10.154C7.49994 8.77328 8.61923 7.65399 9.99994 7.65399C11.3807 7.65399 12.4999 8.77328 12.4999 10.154Z" fill="white" fill-opacity="0.77"/>
</g>
<defs>
<clipPath id="clip0">
<rect width="20" height="20" fill="white" transform="translate(0 0.153992)"/>
</clipPath>
</defs>
</svg>
