<svg width="18" height="20" viewBox="0 0 18 20" fill="none" xmlns="http://www.w3.org/2000/svg">
<path d="M13.5 8C13.5 6.80653 13.0259 5.66193 12.182 4.81802C11.3381 3.97411 10.1935 3.5 9 3.5C7.80653 3.5 6.66193 3.97411 5.81802 4.81802C4.97411 5.66193 4.5 6.80653 4.5 8C4.5 13.25 2.25 14.75 2.25 14.75H15.75C15.75 14.75 13.5 13.25 13.5 8Z" stroke="#D1D9E0" stroke-width="1.6" stroke-linecap="round" stroke-linejoin="round"/>
<path d="M10.2974 17.75C10.1655 17.9773 9.97627 18.166 9.74856 18.2971C9.52085 18.4283 9.26268 18.4973 8.99989 18.4973C8.73711 18.4973 8.47893 18.4283 8.25122 18.2971C8.02351 18.166 7.83425 17.9773 7.70239 17.75" stroke="#D1D9E0" stroke-width="1.6" stroke-linecap="round" stroke-linejoin="round"/>
<circle cx="12.7051" cy="4.74686" r="3" fill="#F05050" stroke="#1A344D" stroke-width="2"/>
</svg>
